<svg
      xmlns="http://www.w3.org/2000/svg"
      width="24"
      height="24"
      viewBox="0 0 24 24"
    >
      <path
        fill="#66E1FF"
        d="M-9.5-3.213c2.039.482 3.716-1.645 3.716-1.645A3.781 3.781 0 00-2.813-3.17a4.336 4.336 0 003.22-1.688 3.139 3.139 0 002.72 1.688A3.615 3.615 0 006.1-4.858s1.3 2.093 3.394 1.612v6.107a2 2 0 01-2 2H-7.5a2 2 0 01-2-2v-6.074z"
        transform="matrix(.83 0 0 .83 12 12) translate(0 1.39)"
      ></path>
      <path
        fill="#C2F3FF"
        d="M6.106-2.858A3.616 3.616 0 013.13-1.17 3.139 3.139 0 01.41-2.858 4.336 4.336 0 01-2.81-1.17a3.782 3.782 0 01-2.971-1.688S-7.461-.731-9.5-1.213v4c2.039.482 3.716-1.645 3.716-1.645A3.782 3.782 0 00-2.813 2.83a4.337 4.337 0 003.22-1.688 3.139 3.139 0 002.72 1.688A3.615 3.615 0 006.1 1.142s1.3 2.093 3.394 1.612v-4c-2.086.481-3.388-1.612-3.388-1.612z"
        transform="matrix(.83 0 0 .83 12 12) translate(0 -.61)"
      ></path>
      <path
        fill="none"
        stroke="#191919"
        strokeLinecap="round"
        strokeLinejoin="round"
        d="M-9.5-3.213c2.039.482 3.716-1.645 3.716-1.645A3.781 3.781 0 00-2.813-3.17a4.336 4.336 0 003.22-1.688 3.139 3.139 0 002.72 1.688A3.615 3.615 0 006.1-4.858s1.3 2.093 3.394 1.612v6.107a2 2 0 01-2 2H-7.5a2 2 0 01-2-2v-6.074z"
        transform="matrix(.83 0 0 .83 12 12) translate(0 1.39)"
      ></path>
      <path
        fill="none"
        stroke="#191919"
        strokeLinecap="round"
        strokeLinejoin="round"
        d="M-9.5-6.251v10.5a2 2 0 002 2h15a2 2 0 002-2v-10"
        transform="matrix(.83 0 0 .83 12 12)"
      ></path>
      <path
        fill="none"
        stroke="#191919"
        strokeLinecap="round"
        strokeLinejoin="round"
        d="M9.5.754C7.408 1.235 6.106-.858 6.106-.858A3.615 3.615 0 013.13.83 3.139 3.139 0 01.41-.858 4.336 4.336 0 01-2.81.83 3.78 3.78 0 01-5.778-.858S-7.461 1.269-9.5.787"
        transform="matrix(.83 0 0 .83 12 12) translate(0 1.39)"
      ></path>
    </svg>
