<!-- <svg width="30" height="30" viewBox="0 0 30 30" fill="none" xmlns="http://www.w3.org/2000/svg">
<path d="M1.63954 13.3644L3.95187 11.052L3.95428 11.0496H8.30453L6.5736 12.7806L6.12669 13.2275L4.35415 15L4.57368 15.2201L14.5039 25.1498L24.6537 15L22.8805 13.2275L22.7557 13.102L20.7033 11.0496H25.0535L25.0559 11.052L26.8683 12.8644L29.0039 15L14.5039 29.5L0.00390625 15L1.63954 13.3644ZM14.5039 0.5L22.8823 8.87842H18.5321L14.5039 4.85024L10.4757 8.87842H6.12548L14.5039 0.5Z" fill="#096DD9"/>
<path d="M4.35477 15.0002L6.12731 13.2276L6.57422 12.7807L4.84389 11.0498H3.9549L3.95249 11.0522L1.64016 13.3645L3.85961 15.5731L4.35477 15.0002Z" fill="url(#paint0_linear_112102_1824)"/>
<path d="M22.8814 13.2276L24.6545 15.0002L24.479 15.1757L24.4796 15.1763L26.8691 12.8646L25.0568 11.0522L25.0544 11.0498H24.8783L22.7565 13.1022L22.8814 13.2276Z" fill="url(#paint1_linear_112102_1824)"/>
<path d="M3.9497 11.0498L3.95211 11.0522L6.12693 13.2276L14.5041 21.6043L25.0586 11.0498H3.9497Z" fill="#1890FF"/>
<defs>
<linearGradient id="paint0_linear_112102_1824" x1="5.62978" y1="11.5889" x2="2.57161" y2="14.6471" gradientUnits="userSpaceOnUse">
<stop stop-color="#023B95"/>
<stop offset="0.9637" stop-color="#096CD9" stop-opacity="0"/>
</linearGradient>
<linearGradient id="paint1_linear_112102_1824" x1="23.2722" y1="11.6281" x2="25.7451" y2="14.4382" gradientUnits="userSpaceOnUse">
<stop stop-color="#023B95"/>
<stop offset="1" stop-color="#096DD9" stop-opacity="0"/>
</linearGradient>
</defs>
</svg> -->
<svg
      xmlns="http://www.w3.org/2000/svg"
      width="24"
      height="24"
      viewBox="0 0 24 24"
    >
      <path
        fill="#66E1FF"
        d="M-9.5-3.213c2.039.482 3.716-1.645 3.716-1.645A3.781 3.781 0 00-2.813-3.17a4.336 4.336 0 003.22-1.688 3.139 3.139 0 002.72 1.688A3.615 3.615 0 006.1-4.858s1.3 2.093 3.394 1.612v6.107a2 2 0 01-2 2H-7.5a2 2 0 01-2-2v-6.074z"
        transform="matrix(.83 0 0 .83 12 12) translate(0 1.39)"
      ></path>
      <path
        fill="#C2F3FF"
        d="M6.106-2.858A3.616 3.616 0 013.13-1.17 3.139 3.139 0 01.41-2.858 4.336 4.336 0 01-2.81-1.17a3.782 3.782 0 01-2.971-1.688S-7.461-.731-9.5-1.213v4c2.039.482 3.716-1.645 3.716-1.645A3.782 3.782 0 00-2.813 2.83a4.337 4.337 0 003.22-1.688 3.139 3.139 0 002.72 1.688A3.615 3.615 0 006.1 1.142s1.3 2.093 3.394 1.612v-4c-2.086.481-3.388-1.612-3.388-1.612z"
        transform="matrix(.83 0 0 .83 12 12) translate(0 -.61)"
      ></path>
      <path
        fill="none"
        stroke="#191919"
        strokeLinecap="round"
        strokeLinejoin="round"
        d="M-9.5-3.213c2.039.482 3.716-1.645 3.716-1.645A3.781 3.781 0 00-2.813-3.17a4.336 4.336 0 003.22-1.688 3.139 3.139 0 002.72 1.688A3.615 3.615 0 006.1-4.858s1.3 2.093 3.394 1.612v6.107a2 2 0 01-2 2H-7.5a2 2 0 01-2-2v-6.074z"
        transform="matrix(.83 0 0 .83 12 12) translate(0 1.39)"
      ></path>
      <path
        fill="none"
        stroke="#191919"
        strokeLinecap="round"
        strokeLinejoin="round"
        d="M-9.5-6.251v10.5a2 2 0 002 2h15a2 2 0 002-2v-10"
        transform="matrix(.83 0 0 .83 12 12)"
      ></path>
      <path
        fill="none"
        stroke="#191919"
        strokeLinecap="round"
        strokeLinejoin="round"
        d="M9.5.754C7.408 1.235 6.106-.858 6.106-.858A3.615 3.615 0 013.13.83 3.139 3.139 0 01.41-.858 4.336 4.336 0 01-2.81.83 3.78 3.78 0 01-5.778-.858S-7.461 1.269-9.5.787"
        transform="matrix(.83 0 0 .83 12 12) translate(0 1.39)"
      ></path>
    </svg>
